PathFileType	4	(X/Y/Z)	C:/Users/beibeiliu/ov580/test_trc/User1\sequence.32_training_dense_right.trc
DataRate	CameraRate	NumFrames	NumMarkers	Units	OrigDataRate	OrigDataStartFrame	OrigNumFrames
120	120	18	19	mm	120	197	224
Frame#	Time	ThumbCMC			ThumbMCP			ThumbIP			ThumbTip			IndexMCP			IndexPIP			IndexTip			MiddleMCP			MiddlePIP			MiddleTip			RingMCP			RingPIP			RingTip			PinkyMCP			PinkyPIP			PinkyTip			BackHand1			BackHand2			BackHand3	
		X0	Y0	Z0	X1	Y1	Z1	X2	Y2	Z2	X3	Y3	Z3	X4	Y4	Z4	X5	Y5	Z5	X6	Y6	Z6	X7	Y7	Z7	X8	Y8	Z8	X9	Y9	Z9	X10	Y10	Z10	X11	Y11	Z11	X12	Y12	Z12	X13	Y13	Z13	X14	Y14	Z14	X15	Y15	Z15	X16	Y16	Z16	X17	Y17	Z17	X18	Y18	Z18	
196	1.63333	237.674	-15.9513	59.4606	235.002	1.9029	33.2955	234.575	11.8423	11.0091	236.631	27.3613	-5.32217	217.154	-45.2621	-26.3215	192.774	-43.0584	-42.223	162.025	-34.5565	-42.673	207.441	-72.1422	-25.583	179.094	-67.4324	-41.8238	144.924	-51.9951	-35.9595	211.488	-95.0444	-10.1455	198.005	-104.548	-34.3172	179.823	-105.788	-55.3538	203.419	-107.413	18.4747	200.671	-126.395	4.5651	208.843	-140.45	-5.87678	230.465	-87.8304	43.4931	237.136	-80.4539	79.615	245.887	-53.3472	50.4329	
197	1.64167	236.103	-15.1074	61.2249	234.858	3.47993	32.3013	236.007	13.1143	9.23167	233.494	25.0005	-4.28402	214.601	-43.9703	-22.4509	183.368	-40.0738	-36.0919	157.068	-34.1594	-25.3373	209.248	-68.0276	-21.7113	178.614	-61.9505	-36.0898	143.533	-45.6939	-18.1052	211.044	-92.4028	-10.7447	195.525	-101.498	-35.8682	180.759	-99.5406	-55.4668	203.647	-110.158	22.6134	203.411	-124.637	4.64415	211.857	-136.778	-9.40239	229.813	-84.412	43.3757	238.493	-75.8104	79.7728	248.947	-49.7011	50.2607	
198	1.65	235.128	-16.046	60.2764	231.66	1.57162	37.1838	234.633	12.4351	10.0015	236.583	28.6643	-6.71827	215.021	-40.6301	-21.4386	179.846	-38.0408	-29.7479	153.784	-25.5072	-11.524	203.831	-69.2393	-21.3275	172.479	-53.7622	-30.4288	145.904	-40.4515	-6.48859	208.892	-93.808	-9.96194	194.572	-97.9095	-37.9757	178.624	-95.1782	-54.7426	205.702	-109.991	18.9418	205.076	-124.809	4.33334	214.905	-136.534	-6.82354	230.486	-83.681	45.571	239.789	-77.1556	74.5476	246.486	-52.0051	52.1317	
199	1.65833	235.415	-16.3995	55.8425	234.41	4.50401	30.8102	234.909	10.9639	5.98642	235.878	26.009	-7.18158	209.014	-40.8176	-22.0978	181.036	-31.9395	-27.0822	158.108	-26.6015	-2.62293	202.478	-64.5406	-22.6268	172.495	-51.5738	-26.0089	149.499	-40.7748	6.84159	208.839	-92.5355	-12.5181	194.945	-92.6898	-39.2597	172.902	-93.6443	-57.8359	205.885	-108.783	19.7765	208.049	-123.397	2.50533	217.83	-135.56	-10.7805	230.497	-86.3225	41.8807	238.123	-77.1795	77.2244	249.748	-47.7947	49.8339	
200	1.66667	234.99	-14.9364	58.2886	232.344	3.64819	35.6584	235.445	12.1185	6.30119	237.214	26.9104	-6.22462	212.317	-37.1752	-20.7213	178.373	-31.3617	-22.2924	161.368	-24.7265	5.03043	200.957	-63.4775	-21.1631	170.172	-51.7556	-21.2237	153.206	-40.2838	12.6792	209.273	-92.5636	-14.0292	192.008	-94.0479	-39.2129	169.033	-91.1427	-58.1329	206.766	-109.963	18.918	209.038	-121.474	0.401944	219.425	-136.049	-11.4778	234.134	-81.3629	41.9465	237.409	-78.8343	79.4814	248.391	-50.6349	49.9239	
201	1.675	236.54	-12.3787	60.8147	234.649	4.54461	32.24	235.738	11.8609	10.0455	237.296	25.4109	-6.60748	213.541	-36.8386	-19.7386	178.225	-32.0429	-19.7915	164.508	-23.5965	8.83595	201.995	-63.9864	-19.1751	171.159	-46.6652	-19.7639	156.792	-36.9477	18.9068	210.133	-92.8577	-11.2923	193.621	-95.2862	-36.7706	172.011	-86.7421	-56.5968	207.116	-107.728	18.6777	208.658	-120.534	4.74328	218.621	-135.866	-12.046	231.379	-85.6866	43.5007	239.355	-76.7091	75.915	247.817	-46.4792	52.1403	
202	1.68333	235.614	-13.7373	57.801	232.175	3.58499	34.0912	235.648	12.1089	6.74473	236.302	21.8376	-9.64988	211.482	-35.1379	-21.7463	179.236	-31.1074	-18.3951	166.254	-24.4672	12.5877	205.941	-60.6251	-18.0971	170.018	-48.8767	-17.4456	159.871	-35.3978	15.4554	211.742	-89.5611	-14.3729	192.579	-92.8244	-39.217	171.658	-87.7271	-53.8239	207.718	-109.595	17.6337	210.261	-118.999	2.10869	219.416	-136.24	-10.0567	234.322	-84.0416	46.2207	236.487	-79.0398	76.6536	248.088	-48.7056	51.7234	
203	1.69167	238.07	-11.2237	56.0823	234.09	5.51162	34.0544	234.866	10.4594	6.57492	237.103	23.9849	-9.895	210.858	-36.2245	-21.144	180.431	-29.287	-19.6502	167.971	-19.8988	14.717	202.281	-62.0233	-20.7267	171.78	-48.7454	-17.264	160.861	-38.2518	19.2743	210.173	-92.6116	-13.0828	192.121	-92.1619	-40.2407	168.176	-88.4079	-54.7608	209.657	-109.55	13.9337	210.3	-120.161	-0.522933	219.563	-134.314	-10.5844	234.513	-83.5687	44.4022	237.684	-79.8148	80.8125	250.877	-49.1626	49.6553	
204	1.7	236.031	-12.6947	59.2756	232.635	1.90092	32.7355	236.805	11.8602	7.30281	236.755	23.854	-7.29259	210.856	-39.8387	-21.9049	180.212	-29.416	-18.3244	169.29	-23.5868	16.6226	203.187	-64.0337	-19.6489	171.446	-51.5825	-16.0896	162.628	-35.4564	18.4899	210.337	-91.3255	-16.4861	190.826	-94.511	-39.4355	170.773	-85.9677	-56.3896	209.907	-108.286	16.0129	209.288	-123.307	2.35655	220.264	-134.609	-11.5285	232.766	-83.0041	44.822	238.104	-78.7017	76.8705	249.667	-49.0819	50.9086	
205	1.70833	236.343	-13.4031	57.5712	235.296	5.61315	35.4554	237.107	12.0303	9.00206	237.834	21.6161	-9.12407	211.153	-39.7606	-20.9396	180.018	-30.4798	-17.1975	169.456	-24.3782	10.7045	206.72	-65.2663	-17.654	173.608	-52.3375	-17.0081	163.453	-38.2574	21.6986	210.74	-94.391	-15.6321	195.872	-92.4857	-37.6515	173.746	-85.8173	-54.6214	210.697	-105.951	17.3705	211.798	-121.023	2.55309	222.771	-136.114	-12.9801	234.785	-86.6463	44.4243	240.453	-75.7888	78.1713	250.774	-51.1578	50.5575	
206	1.71667	238.32	-14.485	57.1513	235.334	3.26584	32.0437	238.176	12.0594	5.47828	238.963	22.9983	-9.15136	213.005	-41.5146	-20.9347	183.124	-32.4973	-18.5746	169.911	-25.0364	13.0363	209.376	-65.8225	-18.5057	174.323	-54.2819	-18.6431	163.001	-38.0487	17.0655	213.831	-94.0081	-11.7614	194.463	-94.8457	-39.5314	171.79	-90.3316	-57.009	211.903	-107.999	17.2488	214.656	-121.484	-0.0982269	223.524	-135.804	-11.4244	236.794	-82.8509	43.6119	238.959	-79.6605	75.8631	249.412	-52.126	50.3277	
207	1.725	237.619	-14.3801	60.2373	234.72	0.0596452	32.4989	239.673	11.8826	6.86056	239.034	22.9171	-7.73088	215.431	-39.5543	-20.9947	183.398	-34.7918	-18.9568	171.059	-25.959	9.49058	206.961	-64.2447	-20.8537	176.908	-54.41	-20.4589	162.46	-36.8793	14.3215	215.363	-93.8151	-10.7733	196.152	-95.7433	-40.0777	178.223	-92.6515	-55.3028	212.783	-107.478	17.571	214.302	-125.635	2.67281	225.805	-136.431	-11.0725	238.219	-84.228	44.8724	240.609	-80.827	80.8467	252.27	-51.5819	53.9092	
208	1.73333	239.402	-14.4322	59.327	236.442	2.405	35.2372	239.823	8.67066	6.74048	242.371	21.5557	-11.3457	220.492	-39.9696	-20.0718	189.681	-34.1442	-22.6824	169.936	-24.3703	10.2583	211.724	-64.3363	-21.0951	179.367	-56.7276	-23.0181	160.882	-41.3331	7.55908	219.073	-92.7197	-11.8508	204.393	-94.6247	-35.2235	182.966	-94.5534	-55.8696	215.749	-111.253	14.8063	215.771	-124.314	6.79758	228.076	-136.945	-8.42587	238.182	-82.8708	45.5999	242.716	-79.6332	77.6294	252.668	-53.4259	50.7471	
209	1.74167	240.581	-13.0613	61.2239	237.265	0.716204	34.0872	239.444	7.78052	9.83087	241.36	20.4415	-11.2325	224.987	-41.7292	-18.4591	191.252	-37.2482	-23.8708	170.087	-29.8098	-0.740466	217.335	-69.1688	-18.9803	183.523	-59.7237	-27.4653	161.72	-40.9942	-2.2401	221.682	-94.6868	-11.3243	204.167	-99.8726	-39.4428	185.049	-98.3239	-59.6323	217.717	-111.117	16.8885	220.589	-126.118	3.08085	231.108	-139.431	-6.99851	237.751	-87.9005	45.9957	240.083	-81.5047	80.0637	251.815	-55.1754	53.5722	
210	1.75	238.713	-18.3799	62.7967	236.837	-2.50407	33.6578	239.334	7.03844	8.55408	239.188	20.6575	-5.35377	225.894	-43.1597	-21.9287	197.349	-41.6297	-30.7955	167.947	-28.6241	-12.3786	219.314	-72.0769	-24.0848	191.442	-59.9262	-36.571	162.635	-47.5494	-19.1035	225.212	-96.8153	-8.7696	212.349	-99.4439	-38.6511	196.653	-99.626	-59.9432	218.128	-110.918	21.2925	221.601	-125.114	4.87419	232.666	-140.017	-8.20109	239.801	-84.0228	47.2859	243.58	-79.9803	82.5466	254.434	-53.0338	55.5788	
211	1.75833	239.557	-13.8318	60.5763	237.014	4.29032	38.4792	240.035	13.1401	10.9223	239.605	25.7583	-5.61624	227.769	-44.0261	-24.9301	202.109	-42.8384	-39.1314	168.95	-34.8704	-30.2664	228.148	-71.8675	-23.6536	201.289	-68.0777	-42.9555	166.523	-56.6311	-40.3071	228.541	-96.1518	-12.7645	218.83	-105.874	-38.5067	203.593	-107.983	-61.0974	220.911	-113.63	18.699	223.757	-122.948	6.98995	236.465	-143.07	-7.34208	241.872	-84.3449	44.6168	241.059	-81.003	81.4488	254.401	-53.9995	53.0959	
212	1.76667	237.332	-13.228	58.894	232.266	1.38621	37.6416	235.887	14.9028	10.9683	235.251	26.6931	-6.44109	231.507	-44.3384	-25.9601	210.649	-46.1305	-43.6828	176.687	-43.8033	-49.9873	230.601	-74.9184	-27.4064	211.777	-71.7245	-48.2914	178.146	-69.5669	-60.0437	231.178	-101.456	-12.3562	226.083	-105.605	-39.6393	214.3	-111.157	-62.8593	223.337	-115.487	17.7981	228.689	-127.736	5.45539	240.337	-143.669	-6.76291	242.741	-83.936	46.2744	242.759	-77.4532	77.358	252.677	-49.8584	52.9877	
213	1.775	232.196	-14.4583	60.9774	230.009	4.09748	34.1212	229.615	13.7035	8.78867	229.788	25.9967	-9.3616	234.634	-43.6457	-22.8321	218.141	-47.3735	-47.461	189.841	-50.3204	-65.3684	236.779	-74.8018	-23.5134	222.055	-77.6589	-52.025	193.437	-82.199	-75.0397	236.577	-96.4977	-12.2678	232.782	-105.983	-36.2258	225.011	-111.223	-65.2562	226.032	-113.326	18.8556	231.135	-128.75	6.75154	245.485	-139.09	-6.37142	242.952	-83.4888	49.0374	243.011	-78.2421	81.5315	250.982	-46.863	56.6051	
